<svg version="1.1" xmlns="http://www.w3.org/2000/svg" viewBox="0 0 620 680" width="620" height="680">
  <!-- svg-source:excalidraw -->
  
  <defs>
    <style class="style-fonts">
      @font-face {
        font-family: "Virgil";
        src: url("https://excalidraw.com/Virgil.woff2");
      }
      @font-face {
        font-family: "Cascadia";
        src: url("https://excalidraw.com/Cascadia.woff2");
      }
    </style>
  </defs>
  <rect x="0" y="0" width="620" height="680" fill="#ffffff"/><g stroke-opacity="0.5" fill-opacity="0.5" stroke-linecap="round" transform="translate(10 10) rotate(0 300 330)"><path d="M0 0 C0 0, 0 0, 0 0 M0 0 C0 0, 0 0, 0 0 M1.87 23.19 C4.47 22.63, 6.8 10.91, 24.85 1.66 M1.11 25.26 C6.29 15.3, 14.85 7.65, 21.75 1.01 M-1.97 47.25 C18.1 36.64, 27.63 14.55, 46.52 2.41 M0.98 48.62 C14.19 34.34, 27.48 15.7, 41.93 1.01 M-1.47 75.42 C25.87 45.48, 53.73 13.34, 62.89 -0.7 M0.81 74.03 C26.45 45.52, 52.44 14.46, 63.96 0.84 M0.9 101.64 C29.52 58.91, 62.51 29.3, 83.39 0.31 M-1 97.62 C20.33 78.98, 36.84 54.87, 86.95 1.66 M3.07 124.16 C23.08 95.81, 52.52 61.17, 106.44 1.52 M-1.13 122.63 C20.2 94.31, 41.91 68.9, 106.71 -1.64 M4 149.66 C53.57 89.8, 93.5 33.88, 124.08 2.65 M-0.51 147.32 C48.02 88.78, 98.68 33.52, 126.42 -1 M2.47 173.25 C53.04 110.34, 112.65 42.88, 146.15 2.4 M0.8 169.55 C34.47 128.41, 70.64 85.85, 146.92 0.34 M-1.2 193.4 C60 130.61, 115.79 64.5, 168.23 2.89 M1.46 194.21 C45.99 141.74, 94.83 84.34, 169.09 -0.68 M-1.9 218.47 C49.13 165.12, 98.57 107.85, 189.73 -2.15 M1.17 218.78 C64.2 147.62, 125.38 76.45, 189.87 -0.39 M1.1 241.9 C59.43 172.69, 120.53 108.09, 209.51 -1.88 M-1.33 243.85 C71.12 166.48, 140.2 87.18, 210.82 0.28 M-0.35 265.76 C85.08 172.12, 169.33 74.03, 234.86 -0.85 M0.84 267.74 C86.04 173.59, 169.9 76.39, 233.69 -0.96 M-1.22 290.95 C59.83 225.65, 116.35 159.59, 252.95 -0.5 M-0.69 292.14 C92.16 192.8, 178.9 92.02, 255.13 -0.9 M-0.65 318.85 C83.81 220.4, 170.81 120.92, 276.01 -0.67 M-0.66 315.77 C97.29 201.39, 197.71 86.32, 274.81 -0.16 M-1.75 343.13 C93.62 235.22, 187.79 126.32, 298.74 -0.79 M0.68 341.15 C118.76 206.06, 234.6 72.88, 296.03 -0.46 M0.07 365.51 C75.62 276.71, 152.01 189.32, 318.28 -0.65 M0.07 365.78 C80.37 274.2, 159.9 182.42, 318.5 0.55 M-0.23 389.54 C97.01 279.92, 195.96 167.54, 338.62 -0.78 M-0.04 389.4 C104.91 272.05, 208.29 153.1, 339.55 -0.82 M1.44 415.17 C89.67 305.76, 183.11 199.56, 360.42 1.18 M-0.06 414.06 C82.38 317.23, 166.84 220.27, 360.02 -0.14 M-1.13 440.03 C128.2 292.67, 255.3 145.54, 380.72 0.52 M0.99 437.98 C125.37 294.61, 249.93 149.46, 381.15 -0.33 M-1.06 463.88 C81.87 369.58, 166.54 272.68, 403.58 -1.04 M0.48 463.54 C101.54 352.03, 198.8 238.08, 402.16 0.59 M0.15 488.56 C130.47 342.37, 256.83 194.29, 422.4 1.25 M0.38 487.5 C134.32 334.74, 269.48 180.35, 424.29 -0.49 M-0.92 513.82 C124.89 365.38, 251.59 218.81, 443.82 -0.62 M0.17 512.89 C137.95 355.22, 274.16 199.51, 445.03 -0.37 M0.93 537.26 C135.91 383.55, 270.33 230, 467.35 0.88 M0.21 536.04 C148.76 363.17, 296.36 194.25, 465.89 0.28 M1.06 559.11 C112.59 433.96, 225.36 303.25, 487.53 -0.47 M0.13 560.87 C166.11 370.96, 332.3 177.88, 487.37 -0.4 M-1.39 585.82 C119.97 451.44, 235.74 316.18, 508.78 0.46 M0.53 584.92 C200.38 360.51, 395.71 134.76, 508.68 0.4 M0.6 608.14 C176.69 407.48, 351.29 200.82, 531.55 0.43 M-0.11 609.31 C211.06 371.15, 418.45 133.34, 530.71 -0.05 M0.22 634.67 C174.6 438.27, 346.53 236.51, 551.16 0.18 M-0.64 633.89 C206.32 395.3, 416.59 153.16, 550.97 -0.88 M0.2 659.74 C133.75 511.25, 263.24 362.06, 572.76 0.67 M-0.28 658.62 C226.03 400.89, 446.49 147.17, 572.95 0.14 M11.85 668.18 C226.86 419.62, 443.64 170.01, 593.53 0.16 M10.91 669.12 C222.73 427.59, 436.64 182.38, 594 0.48 M32.97 668.54 C197.56 480.28, 363.91 288.69, 607.94 7.1 M32.41 669.84 C244.44 433.3, 452.81 191.79, 608.21 7.21 M53.26 669.61 C211.74 481.34, 373.66 296.02, 607.82 32.28 M54.6 670.13 C170.05 536.2, 283.34 404.06, 608.99 32.37 M74.73 668.44 C210.82 512.27, 345.48 356.52, 607.74 56.98 M75.36 668.99 C216.02 503.8, 356.15 340.86, 608.82 56.24 M97.6 670.7 C291.96 441.76, 489.05 214.77, 608.84 80.62 M96.33 669.01 C285.47 456.77, 474.08 241.3, 608.78 81.34 M118.57 668.58 C309.65 447.52, 501.43 225.89, 608.5 106.43 M117.21 670.18 C281.75 479.62, 447.28 289.02, 609.08 105.27 M138.66 669.24 C250.52 538.98, 363.2 411.05, 607.4 130.26 M138.17 669.54 C285.57 497.12, 436.87 322.89, 608.94 128.64 M158.27 670.06 C302.11 501.8, 451.16 334.51, 607.28 153.81 M158.79 669.94 C306.41 505.41, 452.55 339.13, 608.4 153.86 M181.83 671.09 C293.94 539.84, 405.95 408.4, 608.5 178.66 M180.53 670.09 C322.65 504.55, 468.54 335.93, 608.35 177.54 M203.29 668.97 C295.07 562.29, 388.76 453.31, 607.63 201.46 M202.54 669.53 C312.63 536.38, 426.73 405.7, 608.95 203.2 M224.19 669.14 C349.03 523.23, 478.7 376.11, 607.96 226.57 M223.05 669.71 C343.09 533.31, 459.75 399.75, 608.21 226.7 M246.19 669.42 C325.01 581.62, 400.94 491.72, 607.4 251.69 M243.91 670.23 C371.91 519.79, 501.6 370.88, 608.34 250.56 M266.73 669.06 C387.5 523.71, 511.58 380.76, 608.98 274.65 M265.56 669.9 C368.39 551.95, 468.63 437.24, 607.87 276.35 M287.59 668.2 C400.51 543.69, 507.71 418.7, 608.9 300.28 M286.73 669.38 C354.55 594.08, 422.08 515.19, 608.17 300.31 M307.08 671.11 C398.24 561.15, 491.86 452.16, 606.57 326.12 M309.22 668.94 C423.45 536.31, 538.18 401.89, 608.73 324.3 M329.72 667.4 C393.42 595.17, 454.19 524.89, 610.56 347.48 M328.62 670.09 C386.76 608.13, 443.33 541.53, 608.43 347.91 M349.11 669.53 C448.62 553.32, 547.56 439.59, 608.62 371.8 M350.47 669.07 C424.91 588.01, 497 506.27, 607.8 373.69 M373.28 670.95 C426.36 609.87, 473.85 553.3, 608.17 395.62 M370.68 670.02 C467.14 564.9, 560.42 456.91, 607.78 396.45 M392.36 667.96 C445.42 610.84, 494.95 550.87, 608.46 423.04 M392.43 669.14 C444.47 607.97, 497.92 546.28, 608.48 421.13 M413.29 668.68 C458.5 620.66, 503.52 570.71, 606.34 444.98 M415.08 669.27 C483.33 588.26, 550.26 509.06, 608.68 446.2 M432.36 672.49 C499.42 601.06, 559.16 521.69, 606.14 470.06 M434.09 670.33 C504.91 587.12, 574.82 509.54, 608.09 471.33 M455.51 671.9 C505.26 616.87, 545.69 569.44, 607.71 496.31 M456.18 670.09 C507.49 608.78, 560.53 546.76, 608.37 493.04 M477.66 671.1 C521.43 619.35, 565.4 570.45, 604.56 516.87 M477.49 669.54 C507.22 634.18, 536.83 599.57, 608.84 521.21 M499.33 673.08 C520.33 645.63, 550.29 613.38, 605.99 547.43 M498.49 668.94 C538.14 621.97, 579.19 576.9, 610.53 544.64 M517.56 670.25 C550.23 631.87, 577.36 602.07, 606.29 569.4 M520.65 670.16 C538.19 648.04, 560.66 624.73, 606.97 566.9 M539.33 666.02 C563.14 643.57, 585.62 611.86, 611.58 592.98 M541.79 671.14 C558.27 647.34, 577.54 630.45, 609.1 592.55 M562.63 665.93 C580.28 649.73, 598.01 627.79, 607.6 614.25 M563.45 668.55 C575.07 657.22, 588.25 640.05, 607.28 615.59 M581.06 669.12 C590.12 659.63, 599.26 646.62, 610.25 639.93 M581.53 669.24 C588.35 663.83, 594.98 658.83, 607.91 639.98 M0 660 C0 660, 0 660, 0 660 M0 660 C0 660, 0 660, 0 660 M26.48 661.7 C11.58 653.13, 8.62 646.49, 3.77 637.19 M22.21 661.28 C17.63 650.94, 10.84 644.71, 1.45 638.9 M51.32 660.47 C30.69 642.82, 14.07 631, 1.22 615.59 M48.45 658.79 C37.66 647.37, 22.29 637.86, -1.26 618.58 M75.76 662.37 C58.5 647.67, 35.37 630.43, 2.99 599.1 M71.4 660.73 C46.64 635.77, 21.65 617.15, 0.09 596.84 M99.6 660.68 C65.75 629.24, 33.8 608.22, -0.07 573.27 M99.08 660.75 C76.84 642.63, 59.21 625.73, 0.39 575.54 M123.38 663.44 C78.37 622.93, 35.79 586.59, 1.93 553.75 M123.78 659 C74.04 617.72, 27.45 578.13, 0.23 553.32 M142.91 656.79 C113.76 634.49, 81.65 601.17, 3.85 529.71 M146.74 661.37 C105.44 631.23, 69.26 599.93, 1.99 532.83 M168.62 658.04 C133.38 625.67, 94.55 593.56, 3.3 508.53 M171.2 660.11 C126.91 621.85, 84.4 584.28, 1.96 512.65 M194.75 662.22 C135.43 608.46, 75.93 558.86, -2.4 491.5 M195.64 658.77 C131.35 603.22, 67.87 547.15, -0.27 490.49 M220.97 659.87 C169.69 616.82, 117.14 577.85, 1.32 468.75 M218.96 661.64 C171.76 623.41, 126.94 582.69, -0.58 469.67 M242.79 660.43 C168.49 590.33, 97.8 526.06, 1.2 449.39 M243.5 660.06 C154.01 586.64, 65.08 511.17, 0.41 448.37 M266.16 658.25 C175.32 575.32, 77.32 489.25, -0.58 428.9 M267.39 660.22 C194.19 595.21, 120.06 531.82, 0.84 425.58 M291.14 659.29 C177.93 565.75, 69.68 468.12, 2.22 407.18 M293.55 659.36 C216.42 589.99, 136.77 521.2, 0.15 404.86 M318.75 661.24 C213.95 567.64, 106.76 476.12, -0.7 382.18 M316.76 659.28 C208.72 562.28, 99.03 466.26, 0.51 385.25 M341.86 659.83 C224.58 556.59, 106.85 455.11, 0.49 361.85 M340.77 659.85 C211.15 548.05, 80.52 435.34, -0.47 362.34 M364.06 659.32 C287.91 588.36, 207.37 518.01, -1.94 341.47 M366.04 660.22 C286.33 590.69, 204.25 520.65, -1.08 341.62 M388.38 659.09 C285.75 566.64, 183.77 475.59, -1.81 321.23 M390.01 659.03 C301.53 580.56, 211.87 501.8, -0.72 321 M415.5 659.86 C318.78 577.48, 221.61 493.87, 0.99 298.53 M413.94 660.14 C325.67 581.86, 238.29 505.14, -0.32 299.8 M437.86 660.88 C320.74 557.85, 207.3 457.84, 1.34 277.47 M439.49 660.22 C287.72 526.36, 135.28 394.58, 0.88 278.03 M462.55 660.79 C318.4 527.83, 172.32 400.79, 1.29 256.31 M464.36 660.95 C312.01 534.25, 164.6 403.93, -0.14 256.68 M488.2 661.39 C346.28 537.6, 203.99 416.23, -0.37 237.22 M487.21 659.98 C358.08 551.16, 229.2 438.87, -0.65 236.11 M513.21 659.7 C312.3 485.14, 110.48 308.66, 1.17 213.6 M511.86 660.43 C373.03 541.48, 234.32 421.38, 0.35 214.61 M538.13 661.34 C347.84 496.07, 163.56 335.11, -0.41 192.02 M536.16 660.31 C363.69 506.68, 187.8 354.55, 0.3 194.21 M560.3 659.05 C387.51 508.38, 214.43 353.82, -1.2 172.48 M560.26 659.73 C410.93 530.71, 260.47 399.67, -0.8 172.13 M586.44 659.01 C412.66 518.23, 242.08 369.01, -0.99 151.14 M585.68 660.02 C426.52 523.57, 264.42 382.22, -0.62 151.45 M604.85 654.6 C442.19 515.47, 276.95 371.4, -1.18 129.38 M604.32 655 C460.5 529.63, 314.55 403.52, 0.43 129.35 M604.98 633.58 C474.79 518.21, 345.3 404.36, 0.55 106.97 M604.51 633.32 C448.68 497.23, 291.04 361.11, -1.01 107.78 M604.48 613.64 C472.19 501.13, 340.66 388.77, -0.48 87.88 M603.7 612.37 C476.07 510.07, 352.5 401.47, -0.35 88.06 M603.94 591.48 C436.06 450.03, 273.49 307.84, -0.31 67.72 M604.06 592.11 C469.12 472.4, 332.96 354.63, 1.08 66.25 M604.66 571.57 C451.04 435.79, 301.31 308.03, -0.02 46.55 M604.68 570.98 C429.63 414.42, 253.22 261.72, 0.78 45.91 M604.34 549.62 C453.03 416.34, 304.12 282.82, 0.88 22.78 M604.5 548.49 C405.76 378.32, 210.19 208.68, 0.91 23.94 M602.37 528.1 C361.88 316.9, 120.84 105.7, 0.29 2.77 M603.71 527.93 C410.05 361.07, 213.47 190.13, 0.27 3.39 M605.16 506.1 C375.22 302.57, 142.43 103.53, 8.72 -10.27 M603.46 506.17 C419.38 342.87, 233 181.24, 8.62 -9.78 M603.36 485.93 C453.12 358.75, 304.1 231.92, 32.84 -11.31 M604.78 486.61 C469.45 367.44, 331.99 247.05, 32.8 -11.33 M602.98 463.59 C401.69 290.64, 198.77 113.19, 57.04 -9.12 M603.72 464.76 C416.41 300.75, 226.37 135.23, 57.48 -9.57 M603.19 444.96 C408.05 276.71, 216.72 110.21, 81.95 -10.62 M603.61 442.87 C464.4 323.42, 322.15 200.51, 81.32 -9.86 M604.99 423.55 C432.28 279.18, 265.07 133.2, 107.13 -10.79 M603.79 421.91 C409.64 249.57, 213.92 79.17, 106.96 -10.91 M604.51 399.79 C513.23 319.25, 415.78 236.7, 130.31 -11.19 M604.93 400.13 C437.21 253.08, 269.51 107.18, 131.46 -10.5 M604.67 380.58 C484.32 273.25, 368.69 170.18, 154.81 -9.45 M603.99 378.86 C508.27 297.28, 412.47 215.01, 154.59 -11.15 M604.5 359.53 C438.66 215.1, 274.58 70.97, 179.72 -11.35 M603.51 358.8 C459.72 236.48, 316.34 111.98, 179.47 -9.73 M604.41 335.74 C456.31 209.86, 308.48 79.09, 202.99 -10.91 M603.46 337.84 C453.83 208.42, 304.18 78.92, 203.7 -11.25 M605.17 316.43 C488 220.17, 372.63 120.37, 228.79 -8.66 M604.09 315.32 C470.95 198.85, 337.6 83.08, 229.17 -10.39 M603.39 294 C482.98 191.17, 362.14 88.73, 254.12 -11.13 M604.18 294.71 C518.68 217.76, 431.68 142.47, 252.5 -10.05 M603.72 275.07 C515.53 196.13, 426.32 118.12, 275.03 -10.09 M603.77 273.35 C518.4 196.88, 432.92 123.24, 276.74 -11.3 M605.23 252.28 C513.15 176.13, 424.33 99.6, 303.3 -8.57 M605.33 252.18 C538.56 199.71, 475.93 145.95, 302.27 -9.78 M602.41 232.17 C502.16 143.79, 400.21 58.39, 326.63 -10.89 M603.8 231.68 C546.35 181.5, 489.26 133.22, 324.9 -10.28 M603.33 209.11 C507.33 121.54, 408.99 36.64, 348.91 -12.45 M604.2 210.12 C543.13 158.45, 485.06 107.56, 350.55 -10.79 M606.57 189.61 C515.19 107.05, 426.92 28.38, 377.63 -8.75 M604.44 189.57 C550.74 141.84, 495.8 92.34, 374.66 -9.39 M601.79 166.44 C551.58 122.48, 495.57 73.94, 397.86 -10.11 M605.11 168.14 C539.82 115.64, 480.19 63.86, 399.1 -9.25 M604.64 145.46 C544.18 97.82, 485.6 52.46, 424.87 -10.92 M603.47 147.18 C543.8 94.89, 487.35 44.59, 424.62 -11.26 M606.87 128.15 C550.51 78.76, 496.58 30.36, 446.86 -7.9 M602.45 124.27 C542.04 73.56, 479.9 18.9, 447.51 -12.44 M602.72 100.86 C568.97 73.55, 533.26 45.59, 471.49 -12.4 M604.46 105.78 C560.93 71.72, 517.68 32.72, 471.11 -12.28 M603.89 85.85 C563.26 45.65, 529.66 15.07, 499.07 -13.71 M602.29 83.7 C570.25 53.16, 538.89 24.77, 496.9 -12.53 M607.16 64.49 C584.52 41.95, 560.09 23.5, 523.23 -10.9 M605.35 60.59 C574.09 36.98, 540.62 9.69, 520.74 -10.29 M605.95 37.87 C587.31 24.98, 571.31 15.23, 546.95 -13.13 M603.94 40.85 C593.42 27.98, 579.31 18.06, 546.59 -11.67 M604.7 18.6 C593.64 10.18, 578.81 3.87, 569.01 -11.99 M605.16 17.93 C591.95 7.77, 579.56 -4.21, 571.07 -8.82" stroke="#fa5252" stroke-width="2" fill="none"/><path d="M-0.07 -0.61 C168.94 2.26, 336.21 5.1, 600.58 0.95 M-0.24 0.49 C175.26 2.06, 349.57 0.97, 599.66 0.67 M599.48 0.93 C596.55 264.75, 596.97 528.14, 600.75 659.39 M599.32 -0.69 C601.78 181.24, 601.69 361.83, 599.96 659.33 M599.06 661.27 C451.68 663.73, 304.5 664.14, 0.5 660.15 M599.38 660.43 C429.37 662.13, 259.33 662.08, -0.39 659.78 M-1.03 660.76 C0.59 456.68, -0.39 256.48, -0.5 0.28 M-0.54 660.39 C3.91 408.55, 4.48 155.5, -0.44 0.33" stroke="#c92a2a" stroke-width="4" fill="none"/></g><g stroke-linecap="round"><g transform="translate(130 170) rotate(0 32.00823555864394 81.18254359029234)"><path d="M-0.37 -2.37 C10.81 24.83, 54.98 133.63, 66.09 161.44 M-4.02 2.52 C7.06 30.27, 53.36 138.3, 64.98 164.57" stroke="#c92a2a" stroke-width="4" fill="none"/></g></g><mask/><g stroke-linecap="round"><g transform="translate(192.23076803699135 331.76727129851724) rotate(0 -20 0)"><path d="M1.77 0.6 C-5.22 0.82, -33.47 2.98, -40 2.55 M-0.72 -1.54 C-8.25 -2.16, -36.06 -1.35, -42.23 -1.08" stroke="#c92a2a" stroke-width="4" fill="none"/></g></g><mask/><g stroke-linecap="round"><g transform="translate(230 330) rotate(0 10 -140)"><path d="M-2.16 -2.24 C0.29 -48.65, 14.05 -234, 17.44 -280.28 M1.87 2.71 C4.9 -43.07, 18.75 -230.22, 22.45 -276.8" stroke="#c92a2a" stroke-width="4" fill="none"/></g></g><mask/><g stroke-linecap="round"><g transform="translate(250 50) rotate(0 70 0)"><path d="M-1.13 1.97 C21.99 1.75, 113.7 -0.55, 137.55 -1.31 M3.46 0.58 C27.52 0.72, 119.65 1.85, 142.62 1.61" stroke="#c92a2a" stroke-width="4" fill="none"/></g></g><mask/><g stroke-linecap="round"><g transform="translate(390 50) rotate(0 0 140)"><path d="M0.61 -0.99 C0.47 45.45, -1.79 232.67, -1.82 279.5 M-2.51 -3.99 C-1.65 42.8, 3.37 235.01, 3.59 282.86" stroke="#c92a2a" stroke-width="4" fill="none"/></g></g><mask/><g stroke-linecap="round"><g transform="translate(390 330) rotate(0 -20 0)"><path d="M-1.16 -1.5 C-7.9 -2.05, -31.81 -0.97, -38.38 -0.77 M3.41 3.86 C-3.75 4.93, -32.06 2.64, -39.74 2.44" stroke="#c92a2a" stroke-width="4" fill="none"/></g></g><mask/><g stroke-linecap="round"><g transform="translate(350 330) rotate(0 0 -80)"><path d="M-0.33 -2.12 C-0.66 -28.81, -2.41 -134.36, -2.76 -160.7 M-3.96 2.9 C-3.4 -23.32, 0.97 -130.78, 2.14 -157.45" stroke="#c92a2a" stroke-width="4" fill="none"/></g></g><mask/><g stroke-linecap="round"><g transform="translate(230 330) rotate(0 20 0)"><path d="M2.41 0.6 C8.89 0.32, 33.88 1.01, 39.79 0.76 M0.27 -1.55 C6.29 -1.5, 30.22 -4.39, 37.44 -3.84" stroke="#c92a2a" stroke-width="4" fill="none"/></g></g><mask/><g stroke-linecap="round"><g transform="translate(270 330) rotate(0 10 -80)"><path d="M-2.09 -0.88 C1.32 -27.99, 16.92 -135.01, 20.24 -161.92 M1.97 -3.82 C5.04 -30.7, 14.54 -133.23, 18.13 -159.33" stroke="#c92a2a" stroke-width="4" fill="none"/></g></g><mask/><g stroke-linecap="round"><g transform="translate(290 170) rotate(0 30 0)"><path d="M0.77 2.4 C10.93 2.83, 49.15 0.42, 59.14 0.06 M-2.26 1.23 C7.62 2.38, 46.18 3.35, 56.44 3.72" stroke="#c92a2a" stroke-width="4" fill="none"/></g></g><mask/><g stroke-linecap="round"><g transform="translate(290 130) rotate(0 30 0)"><path d="M0.2 1.02 C10.45 0.43, 51.99 -2.98, 61.54 -2.75 M-3.13 -0.9 C6.88 -1.32, 49.12 -0.46, 60.15 -0.61" stroke="#c92a2a" stroke-width="4" fill="none"/></g></g><mask/><g stroke-linecap="round"><g transform="translate(350 130) rotate(0 0 -20)"><path d="M2.4 -1.05 C2.42 -7.23, -2.37 -32.65, -2.67 -39.54 M0.27 -4.08 C1.35 -10.96, 2.47 -38.22, 2.28 -44.3" stroke="#c92a2a" stroke-width="4" fill="none"/></g></g><mask/><g stroke-linecap="round"><g transform="translate(350 90) rotate(0 -30 0)"><path d="M0.59 -2.4 C-9.24 -2.79, -52.05 -2.24, -61.69 -1.85 M-2.53 2.46 C-11.21 2.35, -47.03 0.69, -56.2 0.77" stroke="#c92a2a" stroke-width="4" fill="none"/></g></g><mask/><g stroke-linecap="round"><g transform="translate(290 90) rotate(0 0 20)"><path d="M-0.09 -0.98 C0.56 4.88, 2.09 31.18, 2.08 37.97 M-3.58 -3.99 C-2.95 3.37, 0.72 32.71, 0.97 40.49" stroke="#c92a2a" stroke-width="4" fill="none"/></g></g><mask/><g stroke-linecap="round"><g transform="translate(430 50) rotate(0 0 140)"><path d="M-2.29 -2.24 C-2.57 44.79, -3.15 233.37, -2.4 280.06 M1.66 2.72 C2.29 50.43, 2.71 237.53, 2.7 283.72" stroke="#c92a2a" stroke-width="4" fill="none"/></g></g><mask/><g stroke-linecap="round"><g transform="translate(430 50) rotate(0 50 0)"><path d="M-0.51 -2.71 C16.65 -2.81, 85.61 0.43, 102.54 0.66 M-4.23 2 C12.82 0.87, 84.33 -3.84, 101.68 -4" stroke="#c92a2a" stroke-width="4" fill="none"/></g></g><mask/><g stroke-linecap="round"><g transform="translate(530 50) rotate(0 20 20)"><path d="M-2.48 2.11 C4.41 9, 32.9 33.62, 40.03 40.2 M1.36 0.78 C8 8.28, 31.59 37.91, 37.8 43.94" stroke="#c92a2a" stroke-width="4" fill="none"/></g></g><mask/><g stroke-linecap="round"><g transform="translate(570 90) rotate(0 -10 100)"><path d="M0.63 -2.62 C-2.66 30.01, -16.43 163.74, -19.46 197.41 M-2.46 2.13 C-6.11 34.87, -18.82 166.29, -21.4 199.64" stroke="#c92a2a" stroke-width="4" fill="none"/></g></g><mask/><g stroke-linecap="round"><g transform="translate(550 290) rotate(0 -20 20)"><path d="M-0.45 -2.27 C-6.8 4.21, -31.24 32.67, -37.88 39.77 M-4.14 2.66 C-10.7 9.53, -32.61 36.45, -38.97 43.27" stroke="#c92a2a" stroke-width="4" fill="none"/></g></g><mask/><g stroke-linecap="round"><g transform="translate(510 330) rotate(0 -40 0)"><path d="M-2.71 -0.92 C-16.3 -0.67, -68.5 -0.07, -81.17 -0.1 M1.01 -3.89 C-13.08 -3.02, -70.56 2.59, -84.04 3.47" stroke="#c92a2a" stroke-width="4" fill="none"/></g></g><mask/><g stroke-linecap="round"><g transform="translate(470 130) rotate(0 0 50)"><path d="M0.29 2.27 C0.51 18.94, 2.99 82.25, 2.56 98.96 M-3 1.03 C-3.04 18.19, 0.67 85.8, 1.71 102.03" stroke="#c92a2a" stroke-width="4" fill="none"/></g></g><mask/><g stroke-linecap="round"><g transform="translate(472.32689238116143 132.3159659277522) rotate(0 18.836553809419286 -1.1579829638760941)"><path d="M-2.33 -2.22 C3.99 -3.15, 28.96 -2.71, 35.59 -3.03 M1.61 2.74 C9.01 3.44, 35.21 1.01, 40.85 0.21" stroke="#c92a2a" stroke-width="4" fill="none"/></g></g><mask/><g stroke-linecap="round"><g transform="translate(510 130) rotate(0 0 50)"><path d="M-0.27 -1.86 C-0.03 14.62, -0.57 80.9, -0.62 98.13 M-3.86 3.31 C-3.86 20.16, -3.39 85.16, -3.2 100.75" stroke="#c92a2a" stroke-width="4" fill="none"/></g></g><mask/><g stroke-linecap="round"><g transform="translate(510 230) rotate(0 -20 0)"><path d="M2.75 2.22 C-4.2 2.44, -32.77 2.61, -39.68 2.65 M0.8 0.96 C-6.69 0.35, -34.98 -0.47, -41.74 -0.92" stroke="#c92a2a" stroke-width="4" fill="none"/></g></g><mask/><g stroke-linecap="round"><g transform="translate(50.75131600573659 54.281033729761845) rotate(0 -0.3756580028682954 137.8594831351191)"><path d="M-0.75 -1.17 C-0.82 45.66, 1.79 231.92, 1.83 278.32 M4.04 -4.28 C3.62 42.08, 2.03 228.59, 0.99 274.72" stroke="#c92a2a" stroke-width="4" fill="none"/></g></g><mask/><g stroke-linecap="round"><g transform="translate(50 50) rotate(0 70 0)"><path d="M-0.64 -0.69 C22.52 -0.67, 117.19 -1.04, 140.84 -0.57 M4.21 -3.53 C26.9 -3.01, 116.4 2.54, 139.05 2.74" stroke="#c92a2a" stroke-width="4" fill="none"/></g></g><mask/><g stroke-linecap="round"><g transform="translate(50 330) rotate(0 20 0)"><path d="M-0.48 -0.84 C5.48 -0.95, 30.98 -0.92, 37.32 -0.88 M-4.19 -3.76 C2.46 -3.46, 34.39 1.28, 42.26 2.27" stroke="#c92a2a" stroke-width="4" fill="none"/></g></g><mask/><g stroke-linecap="round"><g transform="translate(92.456792383641 330.09665015414356) rotate(0 0 -80)"><path d="M-2.46 -0.63 C-1.72 -27.16, 1.44 -133.19, 1.75 -160.1 M1.4 -3.43 C2.17 -29.41, 1.15 -130.42, 0.46 -156.52" stroke="#c92a2a" stroke-width="4" fill="none"/></g></g><mask/><g stroke-linecap="round"><g transform="translate(192.21665056940617 49.30138912424445) rotate(0 0 60)"><path d="M0.8 2.05 C1.02 22.72, 2.49 102.29, 1.92 122.01 M-2.22 0.7 C-2.24 20.78, -0.12 97.59, 0.73 118.09" stroke="#c92a2a" stroke-width="4" fill="none"/></g></g><mask/><g stroke-linecap="round"><g transform="translate(190 170) rotate(0 -30 0)"><path d="M-2.41 -0.47 C-12.51 -0.39, -52.88 -0.99, -62.76 -0.98 M1.48 -3.19 C-7.61 -2.59, -48.31 1.17, -57.86 2.12" stroke="#c92a2a" stroke-width="4" fill="none"/></g></g><mask/><g stroke-linecap="round"><g transform="translate(150.00906006351113 330.2123705931008) rotate(0 -30 -80)"><path d="M2.63 -1.98 C-7.13 -29.11, -48.49 -133.92, -58.56 -160.21 M0.61 3.11 C-9.39 -22.34, -50.19 -130.09, -60.01 -156.7" stroke="#c92a2a" stroke-width="4" fill="none"/></g></g><mask/><g stroke-linecap="round" transform="translate(90 90) rotate(0 30 20)"><path d="M-2.06 -2.29 C13.36 -0.95, 30.06 3.62, 62.78 -1.07 M0.75 -1.92 C14.74 0.54, 30.63 0.92, 61.58 0.52 M61.87 -3.12 C57.76 16.82, 61.96 28.47, 61.28 38.83 M61.33 0.5 C61.81 15.54, 60.44 27.44, 61.04 41.45 M61.37 40.79 C43.18 41.68, 28.64 36.4, -3.53 42.64 M61.22 39.69 C44.2 39.32, 23.91 39.26, 1.8 39.82 M1.58 37.12 C-2.6 27.28, 2.59 12.3, -2.48 1.83 M-0.45 39.63 C1.13 26.9, -1.27 9.4, -0.74 0.39" stroke="#c92a2a" stroke-width="4" fill="none"/></g><g stroke-linecap="round"><g transform="translate(50 350) rotate(0 0 140)"><path d="M0.9 0.25 C3.93 87.04, 2.25 174.41, -2.45 277.05 M-0.92 0.85 C-3.09 65.51, -3.53 129.27, 1.51 278.69" stroke="#c92a2a" stroke-width="4" fill="none"/></g></g><mask/><g stroke-linecap="round"><g transform="translate(50 350) rotate(0 70 0)"><path d="M-3.3 2.96 C53.7 -6.04, 100.89 -2.38, 138.99 -3.81 M-1.18 1.18 C55.03 0.17, 106.55 -2.26, 139.98 -1.74" stroke="#c92a2a" stroke-width="4" fill="none"/></g></g><mask/><g stroke-linecap="round"><g transform="translate(190 350) rotate(0 0 30)"><path d="M-2.36 2.36 C2.88 25.78, -1.57 43.96, -0.03 56.52 M-1.3 1.75 C-0.76 14.46, -0.99 25.48, -1.42 58.02" stroke="#c92a2a" stroke-width="4" fill="none"/></g></g><mask/><g stroke-linecap="round"><g transform="translate(188.1709506548941 412.6042239740491) rotate(0 -50 0)"><path d="M-1.89 -2.11 C-35.92 -2.11, -74.86 -1.26, -97.34 -2.6 M-0.2 -1.29 C-40.18 -0.91, -76.92 1.25, -98.17 -1.96" stroke="#c92a2a" stroke-width="4" fill="none"/></g></g><mask/><g stroke-linecap="round"><g transform="translate(90 410) rotate(0 0 30)"><path d="M0.35 3.66 C-5.11 9.93, -5.09 29.95, -3.84 58.43 M0.81 -0.02 C-1.81 23.2, 1.8 45.03, -1.94 61.59" stroke="#c92a2a" stroke-width="4" fill="none"/></g></g><mask/><g stroke-linecap="round"><g transform="translate(93.84151088446379 473.8742408826947) rotate(0 30 0)"><path d="M-3.84 -1.57 C14.92 -0.32, 20.86 0.87, 59.97 -3.87 M-1.94 1.59 C20.32 0.3, 42.97 -0.4, 58.1 0.71" stroke="#c92a2a" stroke-width="4" fill="none"/></g></g><mask/><g stroke-linecap="round"><g transform="translate(153.8415108844638 473.8742408826947) rotate(0 0 20)"><path d="M1.61 -0.03 C-3.79 17.14, 3.43 31.57, -3.87 43.17 M0.3 -1.9 C1.11 10.36, 2.05 19.14, -1.42 38.7" stroke="#c92a2a" stroke-width="4" fill="none"/></g></g><mask/><g stroke-linecap="round"><g transform="translate(153.8415108844638 513.8742408826947) rotate(0 -30 0)"><path d="M3.34 2.32 C-21.82 3.93, -38.81 2.75, -61.16 0.6 M1.65 0.96 C-13.73 -0.54, -23.69 2.41, -58.04 -1.29" stroke="#c92a2a" stroke-width="4" fill="none"/></g></g><mask/><g stroke-linecap="round"><g transform="translate(90.5862787043122 511.16060162335634) rotate(0 0 30)"><path d="M2 -1.16 C1.55 8.4, 2.38 26.93, 3.3 61.91 M1.65 1.96 C-2.07 14.31, -0.12 26.74, 0.28 61.93" stroke="#c92a2a" stroke-width="4" fill="none"/></g></g><mask/><g stroke-linecap="round"><g transform="translate(93.44979143887758 570.8120272664214) rotate(0 50 0)"><path d="M2.54 3.3 C33.41 -3.54, 60.39 1.17, 103.3 3.92 M-0.76 0.28 C25.5 -0.23, 47.02 -2.39, 101.56 1.31" stroke="#c92a2a" stroke-width="4" fill="none"/></g></g><mask/><g stroke-linecap="round"><g transform="translate(193.44979143887758 570.8120272664214) rotate(0 0 30)"><path d="M1.88 3.3 C3.07 18.29, 0.27 43.07, -1.53 60.55 M-1.72 1.56 C1.57 22.24, -0.2 46.59, 1.59 58.5" stroke="#c92a2a" stroke-width="4" fill="none"/></g></g><mask/><g stroke-linecap="round"><g transform="translate(193.44979143887758 630.8120272664214) rotate(0 -70 0)"><path d="M1.33 -1.53 C-55.15 4.64, -110.54 0.56, -143.45 3.12 M-1 1.59 C-52.67 -1.8, -101.44 0.88, -139.29 -1.13" stroke="#c92a2a" stroke-width="4" fill="none"/></g></g><mask/><g stroke-linecap="round"><g transform="translate(230 630) rotate(0 0 -140)"><path d="M1.43 0.14 C-3.9 -92.1, -1.09 -185.08, -0.63 -282.72 M-0.99 -0.33 C-1.73 -66.09, -0.98 -128.85, -1.3 -279.87" stroke="#c92a2a" stroke-width="4" fill="none"/></g></g><mask/><g stroke-linecap="round"><g transform="translate(230 350) rotate(0 20 0)"><path d="M3.16 3.9 C7.74 0.81, 24.87 0.89, 38.17 -3.5 M-0.44 -1.06 C7.87 1.45, 18.85 -0.41, 38.21 0.49" stroke="#c92a2a" stroke-width="4" fill="none"/></g></g><mask/><g stroke-linecap="round"><g transform="translate(270 350) rotate(0 30 70)"><path d="M0.33 2.6 C25.87 52.23, 44.7 103.71, 63.61 139.67 M1.38 1.65 C14.72 37.56, 32.36 79.42, 58.28 141.27" stroke="#c92a2a" stroke-width="4" fill="none"/></g></g><mask/><g stroke-linecap="round"><g transform="translate(330 490) rotate(0 10 -70)"><path d="M3.31 -0.96 C2.38 -33.89, 13.22 -72.9, 22.54 -136.27 M-1.84 -1.79 C9.57 -54.68, 18.33 -108.38, 19 -138.34" stroke="#c92a2a" stroke-width="4" fill="none"/></g></g><mask/><g stroke-linecap="round"><g transform="translate(350 350) rotate(0 20 0)"><path d="M0.33 -3.69 C12.16 2.12, 30.83 4.11, 40.63 -2.01 M-0.45 1 C17.27 -0.32, 29.15 1.3, 39.05 0.63" stroke="#c92a2a" stroke-width="4" fill="none"/></g></g><mask/><g stroke-linecap="round"><g transform="translate(390 350) rotate(0 -10 140)"><path d="M-0.49 2.96 C-7.51 56.78, -9.61 119.12, -18.54 279.31 M-1.14 1.29 C-3.54 98.55, -8.48 196.68, -18.99 280.56" stroke="#c92a2a" stroke-width="4" fill="none"/></g></g><mask/><g stroke-linecap="round"><g transform="translate(370 630) rotate(0 -20 0)"><path d="M1.47 2.13 C-15.05 2.61, -28.04 -3.11, -41.31 -3.18 M1.57 0.76 C-11.69 -2.34, -21.71 0.16, -41.21 1.86" stroke="#c92a2a" stroke-width="4" fill="none"/></g></g><mask/><g stroke-linecap="round"><g transform="translate(330 630) rotate(0 -20 -60)"><path d="M2.97 -3.64 C-15.71 -45.14, -30.37 -82.79, -43.42 -116.85 M-1.39 0.84 C-12.89 -39.37, -23.67 -81.09, -40.77 -119.77" stroke="#c92a2a" stroke-width="4" fill="none"/></g></g><mask/><g stroke-linecap="round"><g transform="translate(290 510) rotate(0 0 60)"><path d="M3.06 1.39 C-2.99 41.5, -4.87 83.61, -1.55 123.85 M0.48 0.85 C-0.78 41.99, -0.88 79.77, 0.52 119.77" stroke="#c92a2a" stroke-width="4" fill="none"/></g></g><mask/><g stroke-linecap="round"><g transform="translate(290 630) rotate(0 -30 0)"><path d="M1.59 1.07 C-20.03 2.11, -38.85 -1.69, -57.54 -3.04 M-0.41 0.67 C-13.7 -1.21, -24.96 -0.37, -58.11 -0.2" stroke="#c92a2a" stroke-width="4" fill="none"/></g></g><mask/><g stroke-linecap="round"><g transform="translate(570 350) rotate(0 -70 0)"><path d="M1.04 -0.46 C-42.92 -1.89, -95.28 -3.25, -140.24 2.91 M0.86 1.37 C-27.66 -1.7, -55.59 -3.53, -138.43 -1.24" stroke="#c92a2a" stroke-width="4" fill="none"/></g></g><mask/><g stroke-linecap="round"><g transform="translate(430 350) rotate(0 0 140)"><path d="M-3.01 -2.68 C-1.95 73.07, 1.85 144.44, -0.23 281.44 M-1.1 -1.51 C3.74 55.31, 3.77 112.99, 0.47 281.34" stroke="#c92a2a" stroke-width="4" fill="none"/></g></g><mask/><g stroke-linecap="round"><g transform="translate(430 630) rotate(0 70 0)"><path d="M1.22 3.5 C31.93 2.36, 67.96 1.62, 136.65 -3.27 M1.32 -0.01 C51.69 -2.55, 103.2 -1.66, 139.04 0.92" stroke="#c92a2a" stroke-width="4" fill="none"/></g></g><mask/><g stroke-linecap="round"><g transform="translate(570 630) rotate(0 0 -60)"><path d="M-3.35 -3.27 C1.12 -42.85, 1.54 -87.47, -0.03 -118.12 M-0.96 0.92 C-2.11 -31.58, -1.21 -65.76, 1.48 -118.13" stroke="#c92a2a" stroke-width="4" fill="none"/></g></g><mask/><g stroke-linecap="round"><g transform="translate(571.1756632886827 348.44260800257325) rotate(0 0 20)"><path d="M-1.02 3.41 C0.75 12.71, 1.83 29.14, 2.75 41.67 M-1.18 1.56 C1.46 13, 1.16 24.04, 1.69 40.62" stroke="#c92a2a" stroke-width="4" fill="none"/></g></g><mask/><g stroke-linecap="round"><g transform="translate(570 390) rotate(0 -40 0)"><path d="M-2.35 3.11 C-22.86 2.9, -48.07 0.37, -76.62 1.25 M0.35 0.88 C-27.29 -0.2, -55.02 2.36, -80.08 0.62" stroke="#c92a2a" stroke-width="4" fill="none"/></g></g><mask/><g stroke-linecap="round"><g transform="translate(490 390) rotate(0 -10 100)"><path d="M1.12 1.24 C-11.15 67.06, -13.53 133.25, -20.94 198.77 M0.56 1.52 C-1.56 46.33, -5.31 90.51, -19.42 199.92" stroke="#c92a2a" stroke-width="4" fill="none"/></g></g><mask/><g stroke-linecap="round"><g transform="translate(470 590) rotate(0 30 0)"><path d="M2.81 0.72 C20.69 1.58, 39.56 -0.85, 62.24 -1.58 M0.21 1.62 C22.6 -0.91, 43.88 -0.45, 61.65 -1.2" stroke="#c92a2a" stroke-width="4" fill="none"/></g></g><mask/><g stroke-linecap="round"><g transform="translate(530 590) rotate(0 0 -20)"><path d="M-0.18 -1.14 C2.07 -14.29, 2.56 -25.82, -3.58 -39.57 M-0.29 -1.53 C1.44 -16.43, 0.63 -30.79, 0.36 -41.24" stroke="#c92a2a" stroke-width="4" fill="none"/></g></g><mask/><g stroke-linecap="round"><g transform="translate(530 550) rotate(0 -20 0)"><path d="M-0.39 -3.58 C-13.81 3.77, -27.45 -3.43, -40.57 -3.06 M-0.33 0.36 C-16.53 2.1, -31.72 -0.79, -39.95 -0.25" stroke="#c92a2a" stroke-width="4" fill="none"/></g></g><mask/><g stroke-linecap="round"><g transform="translate(490 550) rotate(0 10 -30)"><path d="M-3.97 -0.57 C2.19 -15.45, 9.05 -35.71, 19.33 -59.27 M-1.12 0.05 C3.45 -14.35, 8.94 -27.6, 19.1 -60.31" stroke="#c92a2a" stroke-width="4" fill="none"/></g></g><mask/><g stroke-linecap="round"><g transform="translate(510 490) rotate(0 30 10)"><path d="M1.67 -0.67 C14.47 2.71, 30.69 7.41, 57.76 20.09 M0.74 -0.9 C16.88 6.96, 33.29 10.42, 58.34 19.34" stroke="#c92a2a" stroke-width="4" fill="none"/></g></g><mask/></svg>